# xmcd
# 
# Track frame offsets:
#     150
#     11001
#     23788
#     36373
#     48127
#     58581
#     68971
#     81442
#     91332
#     102806
#     116727
#     128096
#     139731
#     154200
#     166231
#     178419
# 
# Disc length: 2524
# 
# Revision: 2
# Processed by: cddbd v1.5.2PL0 Copyright (c) Steve Scherf et al.
# Submitted via: fre:ac v1.0.17
# 
DISCID=d809da10
DTITLE=Various Artist - Only Country! CD2
DYEAR=2009
DGENRE=Country
TTITLE0=Jerry Lee Lewis - I Could Never Be Ashamed Of You
TTITLE1=Dolly Parton - Little Blossoms
TTITLE2=Johnny Cash - Folsom Prison Blues
TTITLE3=Roy Rogers - San Fernando Valley
TTITLE4=Jim Reeves - Hillbilly Waltz
TTITLE5=Carl Perkins - I Care
TTITLE6=Kenny Rogers - Love Woman
TTITLE7=Willie Nelson - Broken Promises
TTITLE8=Charlie Feathers - Defrost Your Heart
TTITLE9=Bill Monroe - Blue Moon Of Kentucky
TTITLE10=Patsy Cline - Crazy Dreams
TTITLE11=The Folksingers feat. Glen Campbell  - Cherry Beat
TTITLE12=Jeannie C. Riley - Harper Valley PTA
TTITLE13=Frankie Laine - High Noon (Do Not Forsake Me)
TTITLE14=Freddy Fender - Today's Your Wedding Day
TTITLE15=Jerry Lee Lewis - I Forgot To Remember To Forget
EXTD=
EXTT0=
EXTT1=
EXTT2=
EXTT3=
EXTT4=
EXTT5=
EXTT6=
EXTT7=
EXTT8=
EXTT9=
EXTT10=
EXTT11=
EXTT12=
EXTT13=
EXTT14=
EXTT15=
PLAYORDER=
